<mxfile host="Electron" modified="2023-04-08T22:19:41.370Z" agent="Mozilla/5.0 (Windows NT 10.0; Win64; x64) AppleWebKit/537.36 (KHTML, like Gecko) draw.io/21.1.2 Chrome/106.0.5249.199 Electron/21.4.3 Safari/537.36" etag="jPsPu4W-v2lGw9VHJ7QX" version="21.1.2" type="device">
  <diagram name="Page-1" id="Axyi0ZO_WcJgHzGyMsrf">
    <mxGraphModel dx="9420" dy="2020" grid="1" gridSize="10" guides="1" tooltips="1" connect="1" arrows="1" fold="1" page="1" pageScale="1" pageWidth="1100" pageHeight="850" math="0" shadow="0">
      <root>
        <mxCell id="0" />
        <mxCell id="1" parent="0" />
        <mxCell id="D8F80IK6GejHwHV3GmlB-4" value="" style="rounded=1;whiteSpace=wrap;html=1;fillColor=#f5f5f5;strokeColor=#666666;strokeWidth=3;fontColor=#333333;" parent="1" vertex="1">
          <mxGeometry x="-6510" y="80" width="1970" height="1060" as="geometry" />
        </mxCell>
        <mxCell id="YyOdazKIApJBeC4s2K_R-1" value="utopia_init.sh" style="text;html=1;strokeColor=#82b366;fillColor=#d5e8d4;align=center;verticalAlign=middle;whiteSpace=wrap;rounded=0;fontSize=40;" parent="1" vertex="1">
          <mxGeometry x="-6140" y="80" width="390" height="60" as="geometry" />
        </mxCell>
        <mxCell id="2gBsQM0f74D-0JB1OnKC-3" value="" style="edgeStyle=orthogonalEdgeStyle;rounded=0;orthogonalLoop=1;jettySize=auto;html=1;fontSize=18;fillColor=#d5e8d4;strokeColor=#82b366;exitX=0.75;exitY=1;exitDx=0;exitDy=0;entryX=0.5;entryY=0;entryDx=0;entryDy=0;fontColor=#000000;" parent="1" source="YyOdazKIApJBeC4s2K_R-1" target="2gBsQM0f74D-0JB1OnKC-2" edge="1">
          <mxGeometry relative="1" as="geometry">
            <mxPoint x="-5790" y="110" as="sourcePoint" />
            <Array as="points">
              <mxPoint x="-5848" y="190" />
              <mxPoint x="-5730" y="190" />
            </Array>
          </mxGeometry>
        </mxCell>
        <mxCell id="2gBsQM0f74D-0JB1OnKC-1" value="syscfg_create&lt;br&gt;&lt;span style=&quot;font-weight: normal;&quot;&gt;-f /tmp/syscfg.db&lt;/span&gt;" style="shape=process;whiteSpace=wrap;html=1;backgroundOutline=1;fontSize=18;fontStyle=1;fillColor=#d5e8d4;strokeColor=#82b366;" parent="1" vertex="1">
          <mxGeometry x="-6150" y="230" width="180" height="60" as="geometry" />
        </mxCell>
        <mxCell id="2gBsQM0f74D-0JB1OnKC-48" value="" style="edgeStyle=orthogonalEdgeStyle;rounded=0;orthogonalLoop=1;jettySize=auto;html=1;fillColor=#d5e8d4;strokeColor=#82b366;" parent="1" source="2gBsQM0f74D-0JB1OnKC-2" target="2gBsQM0f74D-0JB1OnKC-47" edge="1">
          <mxGeometry relative="1" as="geometry" />
        </mxCell>
        <mxCell id="2gBsQM0f74D-0JB1OnKC-2" value="&lt;b&gt;psm_defaults_create&lt;/b&gt;" style="shape=process;whiteSpace=wrap;html=1;backgroundOutline=1;fontSize=18;fillColor=#d5e8d4;strokeColor=#82b366;verticalAlign=middle;" parent="1" vertex="1">
          <mxGeometry x="-5870" y="230" width="280" height="60" as="geometry" />
        </mxCell>
        <mxCell id="2gBsQM0f74D-0JB1OnKC-9" value="syscfg" style="shape=process;whiteSpace=wrap;html=1;backgroundOutline=1;fontSize=18;fontStyle=1;fillColor=#d5e8d4;strokeColor=#82b366;" parent="1" vertex="1">
          <mxGeometry x="-6360" y="790" width="210" height="60" as="geometry" />
        </mxCell>
        <mxCell id="2gBsQM0f74D-0JB1OnKC-10" value="syseventd" style="shape=process;whiteSpace=wrap;html=1;backgroundOutline=1;fontSize=18;fontStyle=1;fillColor=#d5e8d4;strokeColor=#82b366;" parent="1" vertex="1">
          <mxGeometry x="-6200" y="460" width="140" height="30" as="geometry" />
        </mxCell>
        <mxCell id="2gBsQM0f74D-0JB1OnKC-12" value="&lt;b&gt;/usr/ccsp/psm/lg_bbhm_patch.sh &lt;/b&gt;/nvram/bbhm_bak_cfg.xml" style="shape=process;whiteSpace=wrap;html=1;backgroundOutline=1;fontSize=18;verticalAlign=middle;fillColor=#d5e8d4;strokeColor=#82b366;" parent="1" vertex="1">
          <mxGeometry x="-5380" y="150" width="390" height="60" as="geometry" />
        </mxCell>
        <mxCell id="2gBsQM0f74D-0JB1OnKC-15" value="" style="edgeStyle=orthogonalEdgeStyle;rounded=0;orthogonalLoop=1;jettySize=auto;html=1;fillColor=#d5e8d4;strokeColor=#82b366;exitX=0.25;exitY=1;exitDx=0;exitDy=0;entryX=0.5;entryY=0;entryDx=0;entryDy=0;" parent="1" source="YyOdazKIApJBeC4s2K_R-1" target="2gBsQM0f74D-0JB1OnKC-1" edge="1">
          <mxGeometry relative="1" as="geometry">
            <mxPoint x="-5790" y="130" as="sourcePoint" />
            <mxPoint x="-5930" y="159.99999999999977" as="targetPoint" />
            <Array as="points" />
          </mxGeometry>
        </mxCell>
        <mxCell id="2gBsQM0f74D-0JB1OnKC-20" value="/tmp/syscfg.shmid&lt;br&gt;/SYSVed5e0006" style="shape=cube;whiteSpace=wrap;html=1;boundedLbl=1;backgroundOutline=1;darkOpacity=0.05;darkOpacity2=0.1;fontSize=18;fontStyle=1" parent="1" vertex="1">
          <mxGeometry x="-6320" y="345" width="210" height="80" as="geometry" />
        </mxCell>
        <mxCell id="2gBsQM0f74D-0JB1OnKC-21" value="" style="endArrow=classic;html=1;rounded=1;fillColor=#d5e8d4;strokeColor=#82b366;" parent="1" source="2gBsQM0f74D-0JB1OnKC-20" target="2gBsQM0f74D-0JB1OnKC-9" edge="1">
          <mxGeometry width="50" height="50" relative="1" as="geometry">
            <mxPoint x="-5650" y="740" as="sourcePoint" />
            <mxPoint x="-5600" y="690" as="targetPoint" />
          </mxGeometry>
        </mxCell>
        <mxCell id="2gBsQM0f74D-0JB1OnKC-22" value="sysevent" style="shape=process;whiteSpace=wrap;html=1;backgroundOutline=1;fontSize=18;fontStyle=1;fillColor=#d5e8d4;strokeColor=#82b366;" parent="1" vertex="1">
          <mxGeometry x="-5800" y="790" width="210" height="60" as="geometry" />
        </mxCell>
        <mxCell id="2gBsQM0f74D-0JB1OnKC-23" value="" style="endArrow=none;html=1;rounded=0;fillColor=#d5e8d4;strokeColor=#82b366;" parent="1" source="2gBsQM0f74D-0JB1OnKC-10" target="2gBsQM0f74D-0JB1OnKC-22" edge="1">
          <mxGeometry width="50" height="50" relative="1" as="geometry">
            <mxPoint x="-5670" y="864" as="sourcePoint" />
            <mxPoint x="-5540" y="856" as="targetPoint" />
          </mxGeometry>
        </mxCell>
        <mxCell id="2gBsQM0f74D-0JB1OnKC-24" value="" style="endArrow=none;html=1;rounded=0;" parent="1" source="2gBsQM0f74D-0JB1OnKC-20" target="2gBsQM0f74D-0JB1OnKC-10" edge="1">
          <mxGeometry width="50" height="50" relative="1" as="geometry">
            <mxPoint x="-5340" y="840" as="sourcePoint" />
            <mxPoint x="-5540" y="856" as="targetPoint" />
          </mxGeometry>
        </mxCell>
        <mxCell id="2gBsQM0f74D-0JB1OnKC-25" value="/tmp/syscfg.db" style="rounded=1;whiteSpace=wrap;html=1;fontSize=18;" parent="1" vertex="1">
          <mxGeometry x="-6360" y="235" width="150" height="60" as="geometry" />
        </mxCell>
        <mxCell id="2gBsQM0f74D-0JB1OnKC-26" value="/nvram/syscfg.db" style="rounded=1;whiteSpace=wrap;html=1;fontSize=18;" parent="1" vertex="1">
          <mxGeometry x="-6390" y="130" width="160" height="30" as="geometry" />
        </mxCell>
        <mxCell id="2gBsQM0f74D-0JB1OnKC-27" value="/tmp/lg_bbhm_def_cfg.xml" style="rounded=1;whiteSpace=wrap;html=1;fontSize=18;" parent="1" vertex="1">
          <mxGeometry x="-5280" y="590" width="250" height="30" as="geometry" />
        </mxCell>
        <mxCell id="2gBsQM0f74D-0JB1OnKC-28" value="" style="endArrow=classic;html=1;rounded=1;fillColor=#d5e8d4;strokeColor=#82b366;" parent="1" source="2gBsQM0f74D-0JB1OnKC-25" target="2gBsQM0f74D-0JB1OnKC-1" edge="1">
          <mxGeometry width="50" height="50" relative="1" as="geometry">
            <mxPoint x="-5670" y="867" as="sourcePoint" />
            <mxPoint x="-5540" y="863" as="targetPoint" />
          </mxGeometry>
        </mxCell>
        <mxCell id="2gBsQM0f74D-0JB1OnKC-29" value="/etc/utopia/defaults/lg_bbhm_cust_&lt;b&gt;&lt;font color=&quot;#ff0000&quot;&gt;9&lt;/font&gt;&lt;/b&gt;.xml" style="rounded=1;whiteSpace=wrap;html=1;fontSize=18;" parent="1" vertex="1">
          <mxGeometry x="-5230" y="470" width="490" height="30" as="geometry" />
        </mxCell>
        <mxCell id="2gBsQM0f74D-0JB1OnKC-30" value="/nvram/bbhm_bak_cfg.xml" style="rounded=1;whiteSpace=wrap;html=1;fontSize=18;" parent="1" vertex="1">
          <mxGeometry x="-4890" y="140" width="230" height="40" as="geometry" />
        </mxCell>
        <mxCell id="2gBsQM0f74D-0JB1OnKC-31" value="" style="endArrow=classic;html=1;rounded=1;fillColor=#d5e8d4;strokeColor=#82b366;" parent="1" source="2gBsQM0f74D-0JB1OnKC-30" target="2gBsQM0f74D-0JB1OnKC-12" edge="1">
          <mxGeometry width="50" height="50" relative="1" as="geometry">
            <mxPoint x="-5900" y="275" as="sourcePoint" />
            <mxPoint x="-6180" y="275" as="targetPoint" />
          </mxGeometry>
        </mxCell>
        <mxCell id="2gBsQM0f74D-0JB1OnKC-32" value="COPY" style="endArrow=classic;html=1;rounded=0;fillColor=#d5e8d4;strokeColor=#82b366;" parent="1" source="2gBsQM0f74D-0JB1OnKC-26" target="2gBsQM0f74D-0JB1OnKC-25" edge="1">
          <mxGeometry width="50" height="50" relative="1" as="geometry">
            <mxPoint x="-6290" y="620" as="sourcePoint" />
            <mxPoint x="-6240" y="570" as="targetPoint" />
          </mxGeometry>
        </mxCell>
        <mxCell id="2gBsQM0f74D-0JB1OnKC-33" value="" style="endArrow=classic;html=1;rounded=1;fillColor=#d5e8d4;strokeColor=#82b366;" parent="1" source="2gBsQM0f74D-0JB1OnKC-1" target="2gBsQM0f74D-0JB1OnKC-20" edge="1">
          <mxGeometry width="50" height="50" relative="1" as="geometry">
            <mxPoint x="-6170" y="304" as="sourcePoint" />
            <mxPoint x="-5900" y="284" as="targetPoint" />
          </mxGeometry>
        </mxCell>
        <mxCell id="2gBsQM0f74D-0JB1OnKC-49" value="" style="edgeStyle=orthogonalEdgeStyle;rounded=0;orthogonalLoop=1;jettySize=auto;html=1;entryX=1;entryY=0.5;entryDx=0;entryDy=0;fillColor=#d5e8d4;strokeColor=#82b366;curved=1;" parent="1" source="2gBsQM0f74D-0JB1OnKC-34" target="2gBsQM0f74D-0JB1OnKC-43" edge="1">
          <mxGeometry relative="1" as="geometry" />
        </mxCell>
        <mxCell id="2gBsQM0f74D-0JB1OnKC-34" value="/etc/utopia/system_defaults" style="rounded=1;whiteSpace=wrap;html=1;fontSize=18;" parent="1" vertex="1">
          <mxGeometry x="-5270" y="710" width="250" height="30" as="geometry" />
        </mxCell>
        <mxCell id="2gBsQM0f74D-0JB1OnKC-35" value="" style="endArrow=classic;html=1;rounded=1;fillColor=#d5e8d4;strokeColor=#82b366;" parent="1" source="2gBsQM0f74D-0JB1OnKC-2" target="2gBsQM0f74D-0JB1OnKC-27" edge="1">
          <mxGeometry width="50" height="50" relative="1" as="geometry">
            <mxPoint x="-4920" y="190" as="sourcePoint" />
            <mxPoint x="-5104" y="245" as="targetPoint" />
          </mxGeometry>
        </mxCell>
        <mxCell id="2gBsQM0f74D-0JB1OnKC-36" value="/usr/ccsp/config/bbhm_def_cfg.xml" style="rounded=1;whiteSpace=wrap;html=1;fontSize=18;" parent="1" vertex="1">
          <mxGeometry x="-5300" y="400" width="320" height="30" as="geometry" />
        </mxCell>
        <mxCell id="2gBsQM0f74D-0JB1OnKC-37" value="" style="endArrow=classic;html=1;rounded=1;exitX=0;exitY=0.25;exitDx=0;exitDy=0;fillColor=#d5e8d4;strokeColor=#82b366;" parent="1" source="2gBsQM0f74D-0JB1OnKC-36" target="2gBsQM0f74D-0JB1OnKC-2" edge="1">
          <mxGeometry width="50" height="50" relative="1" as="geometry">
            <mxPoint x="-5364" y="550" as="sourcePoint" />
            <mxPoint x="-5682" y="300" as="targetPoint" />
          </mxGeometry>
        </mxCell>
        <mxCell id="2gBsQM0f74D-0JB1OnKC-38" value="" style="endArrow=classic;html=1;rounded=1;exitX=0;exitY=0.5;exitDx=0;exitDy=0;fillColor=#d5e8d4;strokeColor=#82b366;" parent="1" source="2gBsQM0f74D-0JB1OnKC-29" target="2gBsQM0f74D-0JB1OnKC-2" edge="1">
          <mxGeometry width="50" height="50" relative="1" as="geometry">
            <mxPoint x="-5370" y="388" as="sourcePoint" />
            <mxPoint x="-5631" y="300" as="targetPoint" />
          </mxGeometry>
        </mxCell>
        <mxCell id="2gBsQM0f74D-0JB1OnKC-39" value="" style="endArrow=classic;html=1;rounded=1;fillColor=#d5e8d4;strokeColor=#82b366;" parent="1" source="2gBsQM0f74D-0JB1OnKC-9" target="2gBsQM0f74D-0JB1OnKC-2" edge="1">
          <mxGeometry width="50" height="50" relative="1" as="geometry">
            <mxPoint x="-6215" y="435" as="sourcePoint" />
            <mxPoint x="-6288" y="740" as="targetPoint" />
          </mxGeometry>
        </mxCell>
        <mxCell id="2gBsQM0f74D-0JB1OnKC-40" value="Customer_Index" style="edgeLabel;html=1;align=center;verticalAlign=middle;resizable=0;points=[];fontSize=18;" parent="2gBsQM0f74D-0JB1OnKC-39" vertex="1" connectable="0">
          <mxGeometry x="-0.1067" y="2" relative="1" as="geometry">
            <mxPoint x="74" y="-141" as="offset" />
          </mxGeometry>
        </mxCell>
        <mxCell id="2gBsQM0f74D-0JB1OnKC-41" value="/tmp/bbhm_cur_cfg.xml" style="rounded=1;whiteSpace=wrap;html=1;fontSize=18;" parent="1" vertex="1">
          <mxGeometry x="-4820" y="370" width="250" height="30" as="geometry" />
        </mxCell>
        <mxCell id="2gBsQM0f74D-0JB1OnKC-42" value="COPY" style="endArrow=classic;html=1;rounded=1;fillColor=#d5e8d4;strokeColor=#82b366;" parent="1" source="2gBsQM0f74D-0JB1OnKC-30" target="2gBsQM0f74D-0JB1OnKC-41" edge="1">
          <mxGeometry width="50" height="50" relative="1" as="geometry">
            <mxPoint x="-4920" y="190" as="sourcePoint" />
            <mxPoint x="-5104" y="245" as="targetPoint" />
          </mxGeometry>
        </mxCell>
        <mxCell id="2gBsQM0f74D-0JB1OnKC-52" value="" style="edgeStyle=orthogonalEdgeStyle;rounded=0;orthogonalLoop=1;jettySize=auto;html=1;entryX=0.5;entryY=0;entryDx=0;entryDy=0;fillColor=#d5e8d4;strokeColor=#82b366;" parent="1" source="2gBsQM0f74D-0JB1OnKC-43" target="2gBsQM0f74D-0JB1OnKC-22" edge="1">
          <mxGeometry relative="1" as="geometry">
            <mxPoint x="-5765" y="670" as="targetPoint" />
          </mxGeometry>
        </mxCell>
        <mxCell id="2gBsQM0f74D-0JB1OnKC-43" value="&lt;b&gt;apply_system_defaults&lt;/b&gt;" style="shape=process;whiteSpace=wrap;html=1;backgroundOutline=1;fontSize=18;fillColor=#d5e8d4;strokeColor=#82b366;verticalAlign=middle;" parent="1" vertex="1">
          <mxGeometry x="-5910" y="530" width="290" height="60" as="geometry" />
        </mxCell>
        <mxCell id="2gBsQM0f74D-0JB1OnKC-44" value="" style="edgeStyle=orthogonalEdgeStyle;rounded=0;orthogonalLoop=1;jettySize=auto;html=1;fontSize=18;fillColor=#d5e8d4;strokeColor=#82b366;exitX=0.5;exitY=1;exitDx=0;exitDy=0;fontColor=#000000;" parent="1" source="YyOdazKIApJBeC4s2K_R-1" target="2gBsQM0f74D-0JB1OnKC-43" edge="1">
          <mxGeometry relative="1" as="geometry">
            <mxPoint x="-5720" y="300" as="sourcePoint" />
            <mxPoint x="-5480" y="660" as="targetPoint" />
          </mxGeometry>
        </mxCell>
        <mxCell id="2gBsQM0f74D-0JB1OnKC-46" value="" style="edgeStyle=orthogonalEdgeStyle;rounded=0;orthogonalLoop=1;jettySize=auto;html=1;fontSize=18;fillColor=#d5e8d4;strokeColor=#82b366;exitX=1;exitY=0.5;exitDx=0;exitDy=0;entryX=0.5;entryY=0;entryDx=0;entryDy=0;fontColor=#000000;" parent="1" source="YyOdazKIApJBeC4s2K_R-1" target="2gBsQM0f74D-0JB1OnKC-12" edge="1">
          <mxGeometry relative="1" as="geometry">
            <mxPoint x="-5837" y="150" as="sourcePoint" />
            <mxPoint x="-5720" y="240" as="targetPoint" />
            <Array as="points">
              <mxPoint x="-5185" y="110" />
            </Array>
          </mxGeometry>
        </mxCell>
        <mxCell id="2gBsQM0f74D-0JB1OnKC-47" value="&lt;b&gt;/usr/ccsp/psm/lg_bbhm_patch.sh&lt;br&gt;&lt;/b&gt;/tmp/lg_bbhm_def_cfg.xml&lt;b&gt;&lt;br&gt;&lt;/b&gt;" style="shape=process;whiteSpace=wrap;html=1;backgroundOutline=1;fontSize=18;verticalAlign=middle;fillColor=#d5e8d4;strokeColor=#82b366;" parent="1" vertex="1">
          <mxGeometry x="-5495" y="250" width="390" height="60" as="geometry" />
        </mxCell>
        <mxCell id="2gBsQM0f74D-0JB1OnKC-50" value="/etc/utopia/defaults/lg_syscfg_cust_&lt;b&gt;&lt;font color=&quot;#ff0000&quot;&gt;9&lt;/font&gt;&lt;/b&gt;.db" style="rounded=1;whiteSpace=wrap;html=1;fontSize=18;" parent="1" vertex="1">
          <mxGeometry x="-5460" y="840" width="355" height="30" as="geometry" />
        </mxCell>
        <mxCell id="2gBsQM0f74D-0JB1OnKC-53" value="" style="endArrow=classic;html=1;rounded=1;entryX=0;entryY=0.75;entryDx=0;entryDy=0;fillColor=#d5e8d4;strokeColor=#82b366;" parent="1" source="2gBsQM0f74D-0JB1OnKC-9" target="2gBsQM0f74D-0JB1OnKC-43" edge="1">
          <mxGeometry width="50" height="50" relative="1" as="geometry">
            <mxPoint x="-6260" y="740" as="sourcePoint" />
            <mxPoint x="-5754" y="300" as="targetPoint" />
          </mxGeometry>
        </mxCell>
        <mxCell id="2gBsQM0f74D-0JB1OnKC-54" value="Customer_Index" style="edgeLabel;html=1;align=center;verticalAlign=middle;resizable=0;points=[];fontSize=18;" parent="2gBsQM0f74D-0JB1OnKC-53" vertex="1" connectable="0">
          <mxGeometry x="-0.1067" y="2" relative="1" as="geometry">
            <mxPoint x="59" y="18" as="offset" />
          </mxGeometry>
        </mxCell>
        <mxCell id="2gBsQM0f74D-0JB1OnKC-55" value="" style="edgeStyle=orthogonalEdgeStyle;rounded=0;orthogonalLoop=1;jettySize=auto;html=1;entryX=1;entryY=0.25;entryDx=0;entryDy=0;exitX=0.25;exitY=1;exitDx=0;exitDy=0;fillColor=#d5e8d4;strokeColor=#82b366;" parent="1" source="2gBsQM0f74D-0JB1OnKC-43" target="2gBsQM0f74D-0JB1OnKC-9" edge="1">
          <mxGeometry relative="1" as="geometry">
            <mxPoint x="-5755" y="600" as="sourcePoint" />
            <mxPoint x="-5755" y="870" as="targetPoint" />
            <Array as="points">
              <mxPoint x="-5838" y="730" />
              <mxPoint x="-5870" y="730" />
              <mxPoint x="-5870" y="805" />
            </Array>
          </mxGeometry>
        </mxCell>
        <mxCell id="2gBsQM0f74D-0JB1OnKC-56" value="" style="edgeStyle=orthogonalEdgeStyle;rounded=0;orthogonalLoop=1;jettySize=auto;html=1;entryX=0.75;entryY=1;entryDx=0;entryDy=0;fillColor=#d5e8d4;strokeColor=#82b366;exitX=0;exitY=0.5;exitDx=0;exitDy=0;" parent="1" source="2gBsQM0f74D-0JB1OnKC-50" target="2gBsQM0f74D-0JB1OnKC-43" edge="1">
          <mxGeometry relative="1" as="geometry">
            <mxPoint x="-5540" y="635" as="sourcePoint" />
            <mxPoint x="-5610" y="570" as="targetPoint" />
            <Array as="points">
              <mxPoint x="-5495" y="660" />
              <mxPoint x="-5692" y="660" />
            </Array>
          </mxGeometry>
        </mxCell>
        <mxCell id="2gBsQM0f74D-0JB1OnKC-58" value="show C_PRODUCT_ID" style="edgeStyle=orthogonalEdgeStyle;rounded=0;orthogonalLoop=1;jettySize=auto;html=1;" parent="1" source="2gBsQM0f74D-0JB1OnKC-57" target="2gBsQM0f74D-0JB1OnKC-47" edge="1">
          <mxGeometry x="-0.322" y="15" relative="1" as="geometry">
            <mxPoint as="offset" />
          </mxGeometry>
        </mxCell>
        <mxCell id="2gBsQM0f74D-0JB1OnKC-57" value="getpp" style="shape=process;whiteSpace=wrap;html=1;backgroundOutline=1;fontSize=18;fontStyle=1;fillColor=#d5e8d4;strokeColor=#82b366;" parent="1" vertex="1">
          <mxGeometry x="-5030" y="320" width="210" height="30" as="geometry" />
        </mxCell>
        <mxCell id="2gBsQM0f74D-0JB1OnKC-59" value="psmcli" style="shape=process;whiteSpace=wrap;html=1;backgroundOutline=1;fontSize=18;fontStyle=1;fillColor=#d5e8d4;strokeColor=#82b366;" parent="1" vertex="1">
          <mxGeometry x="-6140" y="900" width="210" height="60" as="geometry" />
        </mxCell>
        <mxCell id="2gBsQM0f74D-0JB1OnKC-60" value="dmcli" style="shape=process;whiteSpace=wrap;html=1;backgroundOutline=1;fontSize=18;fontStyle=1;fillColor=#d5e8d4;strokeColor=#82b366;" parent="1" vertex="1">
          <mxGeometry x="-5840" y="970" width="210" height="60" as="geometry" />
        </mxCell>
        <mxCell id="YIa_pc3CmJE1Cjd73F7K-1" value="" style="edgeStyle=orthogonalEdgeStyle;rounded=0;orthogonalLoop=1;jettySize=auto;html=1;" parent="1" source="2gBsQM0f74D-0JB1OnKC-61" target="2gBsQM0f74D-0JB1OnKC-59" edge="1">
          <mxGeometry relative="1" as="geometry" />
        </mxCell>
        <mxCell id="2gBsQM0f74D-0JB1OnKC-61" value="/nvram/psmcli_debug_level" style="rounded=1;whiteSpace=wrap;html=1;fontSize=18;" parent="1" vertex="1">
          <mxGeometry x="-6410" y="940" width="240" height="20" as="geometry" />
        </mxCell>
        <mxCell id="2gBsQM0f74D-0JB1OnKC-64" value="" style="edgeStyle=orthogonalEdgeStyle;rounded=0;orthogonalLoop=1;jettySize=auto;html=1;" parent="1" source="2gBsQM0f74D-0JB1OnKC-62" target="2gBsQM0f74D-0JB1OnKC-63" edge="1">
          <mxGeometry relative="1" as="geometry" />
        </mxCell>
        <mxCell id="2gBsQM0f74D-0JB1OnKC-62" value="set_customerID_pp" style="shape=process;whiteSpace=wrap;html=1;backgroundOutline=1;fontSize=18;fontStyle=1;fillColor=#d5e8d4;strokeColor=#82b366;" parent="1" vertex="1">
          <mxGeometry x="-5160" y="1010" width="210" height="30" as="geometry" />
        </mxCell>
        <mxCell id="2gBsQM0f74D-0JB1OnKC-63" value="/nvram/bootconfig_custindex" style="rounded=1;whiteSpace=wrap;html=1;fontSize=18;" parent="1" vertex="1">
          <mxGeometry x="-5060" y="910" width="280" height="30" as="geometry" />
        </mxCell>
        <mxCell id="K1IWgi9TUIo4FmQPqUKY-1" value="" style="rounded=1;whiteSpace=wrap;html=1;fillColor=#dae8fc;strokeColor=#6c8ebf;" vertex="1" parent="1">
          <mxGeometry x="-6390" y="1230" width="1430" height="200" as="geometry" />
        </mxCell>
        <mxCell id="K1IWgi9TUIo4FmQPqUKY-3" value="profile hunter" style="text;html=1;strokeColor=#6c8ebf;fillColor=#dae8fc;align=center;verticalAlign=middle;whiteSpace=wrap;rounded=0;fontSize=40;" vertex="1" parent="1">
          <mxGeometry x="-6310" y="1290" width="390" height="60" as="geometry" />
        </mxCell>
      </root>
    </mxGraphModel>
  </diagram>
</mxfile>
